<svg style="position: absolute; width: 0; height: 0; overflow: hidden;" version="1.1" xmlns="http://www.w3.org/2000/svg" xmlns:xlink="http://www.w3.org/1999/xlink">
<defs>
<symbol id="icon-arrow-down" viewBox="0 0 24 24">
<title>arrow-down</title>
<path d="M18.706 13.294c-0.387-0.387-1.025-0.387-1.413 0l-4.294 4.294v-13.587c0-0.55-0.45-1-1-1s-1 0.45-1 1v13.587l-4.294-4.294c-0.387-0.387-1.025-0.387-1.413 0s-0.387 1.025 0 1.413l6 6c0.012 0.012 0.025 0.025 0.037 0.038 0 0 0 0 0 0s0.006 0.006 0.006 0.006c0 0 0 0 0.006 0.006 0 0 0 0 0.006 0.006 0 0 0.006 0.006 0.006 0.006s0 0 0 0 0.006 0.006 0.006 0.006c0 0 0 0 0 0 0.075 0.063 0.15 0.106 0.231 0.144 0 0 0 0 0.006 0 0 0 0 0 0.006 0 0.106 0.044 0.225 0.075 0.35 0.081 0 0 0 0 0 0 0.006 0 0.006 0 0.012 0 0 0 0 0 0 0s0.006 0 0.006 0c0 0 0.006 0 0.006 0s0.006 0 0.006 0 0.006 0 0.012 0 0.006 0 0.012 0c0 0 0.006 0 0.006 0s0.006 0 0.006 0c0 0 0.006 0 0.006 0s0 0 0 0c0.006 0 0.006 0 0.012 0 0 0 0 0 0 0 0.125-0.006 0.244-0.031 0.35-0.081 0 0 0 0 0 0s0.006 0 0.006 0c0 0 0.006 0 0.006 0s0 0 0 0c0.075-0.031 0.144-0.075 0.213-0.131 0 0 0 0 0 0s0.006-0.006 0.006-0.006c0 0 0 0 0 0s0.006-0.006 0.006-0.006c0 0 0 0 0.006-0.006 0 0 0 0 0.006-0.006 0 0 0.006-0.006 0.006-0.006s0 0 0 0c0.019-0.012 0.031-0.031 0.050-0.050l5.994-5.994c0.406-0.394 0.406-1.031 0.012-1.419z"></path>
</symbol>
<symbol id="icon-arrow-left" viewBox="0 0 24 24">
<title>arrow-left</title>
<path d="M20 11h-13.587l4.294-4.294c0.387-0.387 0.387-1.025 0-1.413s-1.025-0.387-1.413 0l-6 6c-0.012 0.012-0.019 0.019-0.031 0.031 0 0 0 0 0 0s-0.006 0.006-0.006 0.006c0 0-0.006 0.006-0.006 0.006s0 0 0 0.006c0 0-0.006 0.006-0.006 0.006v0c-0.069 0.075-0.119 0.162-0.162 0.25 0 0 0 0 0 0s0 0.006 0 0.006c0 0 0 0.006 0 0.006s0 0 0 0c-0.050 0.119-0.075 0.25-0.075 0.387s0.025 0.269 0.075 0.387c0 0 0 0 0 0s0 0.006 0.006 0.006c0 0 0 0 0 0.006 0 0 0 0 0 0.006 0.038 0.087 0.087 0.169 0.15 0.244 0 0 0 0 0 0s0.006 0.006 0.006 0.006c0 0 0 0 0.006 0.006 0 0 0 0 0.006 0.006 0 0 0.006 0.006 0.006 0.006s0 0 0 0c0.012 0.012 0.025 0.025 0.037 0.038l6 6c0.194 0.194 0.45 0.294 0.706 0.294s0.513-0.1 0.706-0.294c0.387-0.387 0.387-1.025 0-1.413l-4.3-4.3h13.587c0.55 0 1-0.45 1-1s-0.45-1-1-1z"></path>
</symbol>
<symbol id="icon-arrow-right" viewBox="0 0 24 24">
<title>arrow-right</title>
<path d="M20.744 12.669c0 0 0 0 0 0 0.006-0.006 0.006-0.006 0.006-0.006s0 0 0 0 0.006-0.006 0.006-0.006c0 0 0.006-0.006 0.006-0.006s0 0 0 0 0.006-0.006 0.006-0.006c0 0 0 0 0 0 0.063-0.075 0.112-0.156 0.15-0.244 0 0 0 0 0-0.006 0 0 0-0.006 0-0.006s0-0.006 0-0.006c0 0 0 0 0 0 0.038-0.094 0.063-0.194 0.069-0.3 0 0 0 0 0 0s0-0.006 0-0.006c0 0 0-0.006 0-0.006s0-0.006 0-0.006c0 0 0-0.006 0-0.006s0 0 0-0.006c0-0.025 0-0.050 0-0.075 0 0 0 0 0-0.006 0 0 0-0.006 0-0.006s0-0.006 0-0.006c0 0 0-0.006 0-0.006s0-0.006 0-0.006c0 0 0 0 0 0-0.006-0.106-0.031-0.206-0.069-0.3 0 0 0 0 0-0.006 0 0 0 0 0-0.006 0 0 0-0.006-0.006-0.006 0 0 0 0 0 0-0.038-0.094-0.094-0.175-0.156-0.256 0 0 0 0 0 0s-0.006-0.006-0.006-0.006c0 0 0 0 0 0s-0.006-0.006-0.006-0.006-0.006-0.006-0.006-0.006 0 0 0-0.006c-0.012-0.012-0.025-0.025-0.037-0.037l-6-6c-0.387-0.387-1.025-0.387-1.413 0s-0.387 1.025 0 1.413l4.294 4.294h-13.581c-0.55 0-1 0.45-1 1s0.45 1 1 1h13.587l-4.294 4.294c-0.387 0.387-0.387 1.025 0 1.413 0.194 0.194 0.45 0.294 0.706 0.294s0.513-0.1 0.706-0.294l5.994-5.994c0.019-0.025 0.031-0.044 0.044-0.056z"></path>
</symbol>
<symbol id="icon-chevron-left" viewBox="0 0 24 24">
<title>chevron-left</title>
<path d="M10.413 12l5.294-5.294c0.387-0.387 0.387-1.025 0-1.413s-1.025-0.387-1.413 0l-6 6c-0.387 0.387-0.387 1.025 0 1.413l6 6c0.194 0.194 0.45 0.294 0.706 0.294s0.513-0.1 0.706-0.294c0.387-0.387 0.387-1.025 0-1.413l-5.294-5.294z"></path>
</symbol>
<symbol id="icon-chevron-right" viewBox="0 0 24 24">
<title>chevron-right</title>
<path d="M15.706 11.294l-6-6c-0.387-0.387-1.025-0.387-1.413 0s-0.387 1.025 0 1.413l5.294 5.294-5.294 5.294c-0.387 0.387-0.387 1.025 0 1.413 0.194 0.194 0.45 0.294 0.706 0.294s0.513-0.1 0.706-0.294l6-6c0.394-0.387 0.394-1.025 0-1.413z"></path>
</symbol>
<symbol id="icon-eye" viewBox="0 0 24 24">
<title>eye</title>
<path d="M23.894 11.55c-0.044-0.087-1.087-2.156-3.038-4.238-2.65-2.819-5.712-4.313-8.856-4.313s-6.206 1.494-8.856 4.319c-1.95 2.081-2.994 4.15-3.037 4.238-0.144 0.281-0.144 0.612 0 0.894 0.044 0.087 1.087 2.156 3.037 4.237 2.65 2.819 5.712 4.313 8.856 4.313s6.206-1.494 8.856-4.319c1.95-2.081 2.994-4.15 3.038-4.237 0.144-0.275 0.144-0.612 0-0.894zM19.362 15.356c-2.288 2.419-4.763 3.644-7.362 3.644s-5.075-1.225-7.362-3.644c-1.25-1.325-2.106-2.675-2.5-3.356 0.394-0.675 1.244-2.025 2.5-3.356 2.287-2.419 4.762-3.644 7.362-3.644s5.075 1.225 7.362 3.644c1.25 1.331 2.106 2.675 2.5 3.356-0.4 0.675-1.25 2.025-2.5 3.356z"></path>
<path d="M12 8c-2.206 0-4 1.794-4 4s1.794 4 4 4c2.206 0 4-1.794 4-4s-1.794-4-4-4zM12 14c-1.1 0-2-0.9-2-2s0.9-2 2-2c1.1 0 2 0.9 2 2s-0.9 2-2 2z"></path>
</symbol>
<symbol id="icon-facebook" viewBox="0 0 24 24">
<title>facebook</title>
<path d="M18 7c0.55 0 1-0.45 1-1v-4c0-0.55-0.45-1-1-1h-3c-3.306 0-6 2.694-6 6v2h-2c-0.55 0-1 0.45-1 1v4c0 0.55 0.45 1 1 1h2v7c0 0.55 0.45 1 1 1h4c0.55 0 1-0.45 1-1v-7h2c0.456 0 0.856-0.312 0.969-0.756l1-4c0.075-0.3 0.006-0.612-0.181-0.856s-0.481-0.387-0.788-0.387h-3v-2h3zM14 11h2.719l-0.5 2h-2.219c-0.55 0-1 0.45-1 1v7h-2v-7c0-0.55-0.45-1-1-1h-2v-2h2c0.55 0 1-0.45 1-1v-3c0-2.206 1.794-4 4-4h2v2h-2c-1.1 0-2 0.9-2 2v3c0 0.55 0.45 1 1 1z"></path>
</symbol>
<symbol id="icon-instagram" viewBox="0 0 24 24">
<title>instagram</title>
<path d="M17 1h-10c-3.306 0-6 2.694-6 6v10c0 3.306 2.694 6 6 6h10c3.306 0 6-2.694 6-6v-10c0-3.306-2.694-6-6-6zM21 17c0 2.206-1.794 4-4 4h-10c-2.206 0-4-1.794-4-4v-10c0-2.206 1.794-4 4-4h10c2.206 0 4 1.794 4 4v10z"></path>
<path d="M16.987 11.225c0-0.012 0-0.019-0.006-0.031-0.162-1.056-0.65-2.019-1.406-2.775s-1.719-1.244-2.775-1.406c-0.25-0.038-0.506-0.056-0.762-0.056-2.756 0-5 2.244-5 5s2.244 5 5 5c2.756 0 5-2.244 5-5 0-0.25-0.019-0.5-0.050-0.725v-0.006zM12.044 14.956c-1.656 0-3-1.344-3-3s1.344-3 3-3c0.156 0 0.306 0.012 0.456 0.037 1.275 0.194 2.306 1.219 2.506 2.494v0.006c0 0.012 0 0.019 0.006 0.031 0.019 0.131 0.031 0.281 0.031 0.431 0 1.656-1.344 3-3 3z"></path>
<path d="M17.5 5.5c-0.263 0-0.519 0.106-0.706 0.294s-0.294 0.444-0.294 0.706 0.106 0.519 0.294 0.706c0.188 0.188 0.444 0.294 0.706 0.294s0.519-0.106 0.706-0.294c0.188-0.188 0.294-0.444 0.294-0.706s-0.106-0.519-0.294-0.706c-0.188-0.188-0.444-0.294-0.706-0.294z"></path>
</symbol>
<symbol id="icon-play" viewBox="0 0 24 24">
<title>play</title>
<path d="M19.544 11.156l-14-9c-0.306-0.2-0.7-0.213-1.019-0.037s-0.519 0.513-0.519 0.875v18c0 0.369 0.2 0.7 0.519 0.875 0.15 0.081 0.312 0.125 0.481 0.125 0.188 0 0.375-0.056 0.544-0.156l14-9c0.288-0.181 0.456-0.5 0.456-0.844s-0.181-0.65-0.462-0.837zM6 19.169v-14.337l11.15 7.169-11.15 7.169z"></path>
</symbol>
<symbol id="icon-twitter" viewBox="0 0 24 24">
<title>twitter</title>
<path d="M23.55 2.163c-0.344-0.225-0.794-0.219-1.131 0.025-0.675 0.481-1.444 0.888-2.238 1.188-1.069-0.894-2.356-1.381-3.7-1.381-3.019 0-5.475 2.456-5.481 5.469-2.25-0.188-5.069-1.15-8.219-5.088-0.225-0.275-0.575-0.419-0.925-0.363-0.356 0.050-0.65 0.288-0.787 0.619-0.044 0.112-1.087 2.756-0.819 5.956 0.225 2.669 1.406 6.162 5.581 8.494-1.356 0.612-2.838 0.931-4.369 0.931-0.15 0-0.3 0-0.444-0.006-0.462-0.019-0.881 0.281-1.006 0.731-0.125 0.444 0.075 0.919 0.475 1.144 2.412 1.338 5.075 2.050 7.694 2.056 0.019 0 0.037 0 0.056 0 2.544 0 4.994-0.656 7.1-1.894 4.231-2.494 6.656-7.062 6.656-12.544 0-0.169-0.006-0.337-0.025-0.506 0.95-1.031 1.638-2.3 1.981-3.694 0-0.012 0.006-0.025 0.006-0.038l0.012-0.056c0.094-0.4-0.075-0.819-0.419-1.044zM20.225 5.919c-0.25 0.237-0.356 0.581-0.294 0.919 0.044 0.219 0.063 0.444 0.069 0.663 0 2.481-0.537 4.713-1.594 6.619-0.963 1.744-2.375 3.194-4.075 4.194-1.8 1.056-3.9 1.619-6.087 1.619-0.019 0-0.031 0-0.050 0-1.075-0.006-2.156-0.144-3.225-0.413 1.275-0.369 2.487-0.938 3.594-1.694 0.306-0.206 0.469-0.569 0.425-0.938s-0.281-0.681-0.625-0.819c-3.744-1.5-5.8-4.050-6.119-7.587-0.119-1.294 0.025-2.494 0.206-3.412 0.769 0.825 1.731 1.713 2.869 2.456 2.006 1.312 4.25 1.975 6.675 1.975 0.55 0 1-0.45 1-1v-1.031c0-1.919 1.563-3.481 3.481-3.481 1 0 1.975 0.431 2.744 1.219 0.262 0.269 0.65 0.369 1.012 0.256 0.194-0.063 0.394-0.125 0.588-0.2-0.181 0.237-0.381 0.45-0.594 0.656z"></path>
</symbol>
</defs>
</svg>
