<?xml version="1.0" encoding="UTF-8"?>
<svg width="466px" height="49px" viewBox="0 0 466 49" version="1.1" xmlns="http://www.w3.org/2000/svg" xmlns:xlink="http://www.w3.org/1999/xlink">
    <!-- Generator: Sketch 46 (44423) - http://www.bohemiancoding.com/sketch -->
    <title>logo</title>
    <desc>Created with Sketch.</desc>
    <defs></defs>
    <g id="3.-Facebook" stroke="none" stroke-width="1" fill="none" fill-rule="evenodd">
        <g id="Shared-Link" transform="translate(-383.000000, -283.000000)" fill="#000000">
            <path d="M383.792,330 C390.832,330 393.52,329.68 395.568,329.168 C399.728,328.144 404.592,325.072 404.592,317.392 L404.592,284.176 L390.832,284.176 L390.832,313.872 C390.832,318.48 390.128,319.504 388.208,320.208 C386.736,320.72 385.904,320.848 383.792,320.848 L383.792,330 Z M428.776889,297.36 L424.296889,313.04 L433.320889,313.04 L429.224889,297.36 L428.776889,297.36 Z M437.736889,330 L435.752889,322.32 L421.672889,322.32 L419.496889,330 L407.656889,330 L422.376889,284.176 L436.840889,284.176 L451.432889,330 L437.736889,330 Z M455.329778,330 L464.289778,330 L464.289778,297.232 L464.545778,297.232 L472.353778,330 L483.489778,330 L491.041778,297.232 L491.425778,297.232 L491.425778,330 L503.585778,330 L503.585778,284.176 L486.625778,284.176 L480.097778,312.592 L479.841778,312.592 L472.929778,284.176 L455.329778,284.176 L455.329778,330 Z M511.578667,330 L525.338667,330 L525.338667,284.176 L511.578667,284.176 L511.578667,330 Z M533.331555,330 L565.651555,330 L565.651555,321.488 L547.091555,321.488 L547.091555,311.248 L559.763555,311.248 L559.763555,302.736 L547.091555,302.736 L547.091555,292.688 L563.923555,292.688 L563.923555,284.176 L533.331555,284.176 L533.331555,330 Z M581.189333,330 L612.997333,330 L612.997333,320.208 L594.949333,320.208 L594.949333,284.176 L581.189333,284.176 L581.189333,330 Z M635.454222,297.36 L630.974222,313.04 L639.998222,313.04 L635.902222,297.36 L635.454222,297.36 Z M644.414222,330 L642.430222,322.32 L628.350222,322.32 L626.174222,330 L614.334222,330 L629.054222,284.176 L643.518222,284.176 L658.110222,330 L644.414222,330 Z M666.679111,330 L658.103111,284.176 L672.567111,284.176 L675.959111,312.976 L676.407111,312.976 L683.127111,284.176 L693.815111,284.176 L699.767111,312.976 L700.215111,312.976 L704.375111,284.176 L715.703111,284.176 L707.127111,330 L693.495111,330 L687.735111,302.224 L687.543111,302.224 L680.759111,330 L666.679111,330 Z M737.264,331.024 C749.232,331.024 755.44,324.432 755.44,315.664 C755.44,305.936 748.144,302.992 739.056,299.92 C734.256,298.384 731.824,297.232 731.824,294.736 C731.824,292.496 733.744,291.024 736.752,291.024 C741.04,291.024 743.728,293.648 743.984,297.808 L752.816,296.144 C751.472,287.504 745.584,283.152 736.56,283.152 C726.576,283.152 719.408,288.656 719.408,297.232 C719.408,303.76 722.288,309.392 732.912,313.168 C737.776,315.024 742.576,315.792 742.576,319.248 C742.576,321.808 740.528,323.024 736.944,323.024 C731.568,323.024 727.792,320.144 727.28,314.256 L718.128,315.664 C719.152,325.456 727.024,331.024 737.264,331.024 Z M781.736889,331.024 C767.336889,331.024 759.720889,320.464 759.720889,307.088 C759.720889,293.712 767.336889,283.152 781.736889,283.152 C796.072889,283.152 803.624889,293.712 803.624889,307.088 C803.624889,320.464 796.072889,331.024 781.736889,331.024 Z M781.672889,322 C787.112889,322 788.904889,317.136 788.904889,307.088 C788.904889,297.168 787.112889,292.176 781.672889,292.176 C776.296889,292.176 774.440889,297.168 774.440889,307.088 C774.440889,317.136 776.296889,322 781.672889,322 Z M809.889778,330 L820.897778,330 L820.897778,301.136 L821.089778,301.136 L835.873778,330 L848.097778,330 L848.097778,284.176 L837.089778,284.176 L837.089778,311.824 L836.897778,311.824 L823.073778,284.176 L809.889778,284.176 L809.889778,330 Z" id="logo"></path>
        </g>
    </g>
</svg>