<svg style="position: absolute; width: 0; height: 0; overflow: hidden;" version="1.1" xmlns="http://www.w3.org/2000/svg" xmlns:xlink="http://www.w3.org/1999/xlink">
<defs>
<symbol id="icon-spotify" viewBox="0 0 16 16">
<title>spotify</title>
<path d="M8 0c-4.4 0-8 3.6-8 8s3.6 8 8 8 8-3.6 8-8-3.559-8-8-8zM11.681 11.559c-0.159 0.241-0.441 0.319-0.681 0.159-1.881-1.159-4.241-1.4-7.041-0.759-0.281 0.081-0.519-0.119-0.6-0.359-0.081-0.281 0.119-0.519 0.359-0.6 3.041-0.681 5.681-0.4 7.759 0.881 0.281 0.119 0.322 0.438 0.203 0.678zM12.641 9.359c-0.2 0.281-0.559 0.4-0.841 0.2-2.159-1.319-5.441-1.719-7.959-0.919-0.319 0.081-0.681-0.081-0.759-0.4-0.081-0.319 0.081-0.681 0.4-0.759 2.919-0.881 6.519-0.441 9 1.081 0.238 0.119 0.359 0.519 0.159 0.797zM12.719 7.119c-2.559-1.519-6.841-1.681-9.281-0.919-0.4 0.119-0.8-0.119-0.919-0.481-0.119-0.4 0.119-0.8 0.481-0.919 2.841-0.841 7.519-0.681 10.481 1.081 0.359 0.2 0.481 0.681 0.281 1.041-0.203 0.278-0.681 0.397-1.044 0.197z"></path>
</symbol>
<symbol id="icon-arrow-down" viewBox="0 0 16 16">
<title>arrow-down</title>
<path d="M12.471 8.863c-0.258-0.258-0.683-0.258-0.942 0l-2.863 2.863v-9.058c0-0.367-0.3-0.667-0.667-0.667s-0.667 0.3-0.667 0.667v9.058l-2.862-2.863c-0.258-0.258-0.683-0.258-0.942 0s-0.258 0.683 0 0.942l4 4c0.008 0.008 0.017 0.017 0.025 0.025 0 0 0 0 0 0s0.004 0.004 0.004 0.004c0 0 0 0 0.004 0.004 0 0 0 0 0.004 0.004 0 0 0.004 0.004 0.004 0.004s0 0 0 0 0.004 0.004 0.004 0.004c0 0 0 0 0 0 0.050 0.042 0.1 0.071 0.154 0.096 0 0 0 0 0.004 0 0 0 0 0 0.004 0 0.071 0.029 0.15 0.050 0.233 0.054 0 0 0 0 0 0 0.004 0 0.004 0 0.008 0 0 0 0 0 0 0s0.004 0 0.004 0c0 0 0.004 0 0.004 0s0.004 0 0.004 0 0.004 0 0.008 0 0.004 0 0.008 0c0 0 0.004 0 0.004 0s0.004 0 0.004 0c0 0 0.004 0 0.004 0s0 0 0 0c0.004 0 0.004 0 0.008 0 0 0 0 0 0 0 0.083-0.004 0.162-0.021 0.233-0.054 0 0 0 0 0 0s0.004 0 0.004 0c0 0 0.004 0 0.004 0s0 0 0 0c0.050-0.021 0.096-0.050 0.142-0.088 0 0 0 0 0 0s0.004-0.004 0.004-0.004c0 0 0 0 0 0s0.004-0.004 0.004-0.004c0 0 0 0 0.004-0.004 0 0 0 0 0.004-0.004 0 0 0.004-0.004 0.004-0.004s0 0 0 0c0.012-0.008 0.021-0.021 0.033-0.033l3.996-3.996c0.271-0.262 0.271-0.688 0.008-0.946z"></path>
</symbol>
<symbol id="icon-arrow-left" viewBox="0 0 16 16">
<title>arrow-left</title>
<path d="M13.333 7.333h-9.058l2.862-2.862c0.258-0.258 0.258-0.683 0-0.942s-0.683-0.258-0.942 0l-4 4c-0.008 0.008-0.013 0.013-0.021 0.021 0 0 0 0 0 0s-0.004 0.004-0.004 0.004c0 0-0.004 0.004-0.004 0.004s0 0 0 0.004c0 0-0.004 0.004-0.004 0.004v0c-0.046 0.050-0.079 0.108-0.108 0.167 0 0 0 0 0 0s0 0.004 0 0.004c0 0 0 0.004 0 0.004s0 0 0 0c-0.033 0.079-0.050 0.167-0.050 0.258s0.017 0.179 0.050 0.258c0 0 0 0 0 0s0 0.004 0.004 0.004c0 0 0 0 0 0.004 0 0 0 0 0 0.004 0.025 0.058 0.058 0.113 0.1 0.162 0 0 0 0 0 0s0.004 0.004 0.004 0.004c0 0 0 0 0.004 0.004 0 0 0 0 0.004 0.004 0 0 0.004 0.004 0.004 0.004s0 0 0 0c0.008 0.008 0.017 0.017 0.025 0.025l4 4c0.129 0.129 0.3 0.196 0.471 0.196s0.342-0.067 0.471-0.196c0.258-0.258 0.258-0.683 0-0.942l-2.867-2.867h9.058c0.367 0 0.667-0.3 0.667-0.667s-0.3-0.667-0.667-0.667z"></path>
</symbol>
<symbol id="icon-arrow-right" viewBox="0 0 16 16">
<title>arrow-right</title>
<path d="M13.829 8.446c0 0 0 0 0 0 0.004-0.004 0.004-0.004 0.004-0.004s0 0 0 0 0.004-0.004 0.004-0.004c0 0 0.004-0.004 0.004-0.004s0 0 0 0 0.004-0.004 0.004-0.004c0 0 0 0 0 0 0.042-0.050 0.075-0.104 0.1-0.162 0 0 0 0 0-0.004 0 0 0-0.004 0-0.004s0-0.004 0-0.004c0 0 0 0 0 0 0.025-0.063 0.042-0.129 0.046-0.2 0 0 0 0 0 0s0-0.004 0-0.004c0 0 0-0.004 0-0.004s0-0.004 0-0.004c0 0 0-0.004 0-0.004s0 0 0-0.004c0-0.017 0-0.033 0-0.050 0 0 0 0 0-0.004 0 0 0-0.004 0-0.004s0-0.004 0-0.004c0 0 0-0.004 0-0.004s0-0.004 0-0.004c0 0 0 0 0 0-0.004-0.071-0.021-0.138-0.046-0.2 0 0 0 0 0-0.004 0 0 0 0 0-0.004 0 0 0-0.004-0.004-0.004 0 0 0 0 0 0-0.025-0.063-0.063-0.117-0.104-0.171 0 0 0 0 0 0s-0.004-0.004-0.004-0.004c0 0 0 0 0 0s-0.004-0.004-0.004-0.004-0.004-0.004-0.004-0.004 0 0 0-0.004c-0.008-0.008-0.017-0.017-0.025-0.025l-4-4c-0.258-0.258-0.683-0.258-0.942 0s-0.258 0.683 0 0.942l2.862 2.862h-9.054c-0.367 0-0.667 0.3-0.667 0.667s0.3 0.667 0.667 0.667h9.058l-2.862 2.863c-0.258 0.258-0.258 0.683 0 0.942 0.129 0.129 0.3 0.196 0.471 0.196s0.342-0.067 0.471-0.196l3.996-3.996c0.012-0.017 0.021-0.029 0.029-0.037z"></path>
</symbol>
<symbol id="icon-chevron-left" viewBox="0 0 16 16">
<title>chevron-left</title>
<path d="M6.942 8l3.529-3.529c0.258-0.258 0.258-0.683 0-0.942s-0.683-0.258-0.942 0l-4 4c-0.258 0.258-0.258 0.683 0 0.942l4 4c0.129 0.129 0.3 0.196 0.471 0.196s0.342-0.067 0.471-0.196c0.258-0.258 0.258-0.683 0-0.942l-3.529-3.529z"></path>
</symbol>
<symbol id="icon-chevron-right" viewBox="0 0 16 16">
<title>chevron-right</title>
<path d="M10.471 7.529l-4-4c-0.258-0.258-0.683-0.258-0.942 0s-0.258 0.683 0 0.942l3.529 3.529-3.529 3.529c-0.258 0.258-0.258 0.683 0 0.942 0.129 0.129 0.3 0.196 0.471 0.196s0.342-0.067 0.471-0.196l4-4c0.262-0.258 0.262-0.683 0-0.942z"></path>
</symbol>
<symbol id="icon-eye" viewBox="0 0 16 16">
<title>eye</title>
<path d="M15.929 7.7c-0.029-0.058-0.725-1.438-2.025-2.825-1.767-1.879-3.808-2.875-5.904-2.875s-4.138 0.996-5.904 2.879c-1.3 1.388-1.996 2.767-2.025 2.825-0.096 0.188-0.096 0.408 0 0.596 0.029 0.058 0.725 1.438 2.025 2.825 1.767 1.879 3.808 2.875 5.904 2.875s4.138-0.996 5.904-2.879c1.3-1.387 1.996-2.767 2.025-2.825 0.096-0.183 0.096-0.408 0-0.596zM12.908 10.238c-1.525 1.613-3.175 2.429-4.908 2.429s-3.383-0.817-4.908-2.429c-0.833-0.883-1.404-1.783-1.667-2.238 0.262-0.45 0.829-1.35 1.667-2.237 1.525-1.612 3.175-2.429 4.908-2.429s3.383 0.817 4.908 2.429c0.833 0.888 1.404 1.783 1.667 2.237-0.267 0.45-0.833 1.35-1.667 2.238z"></path>
<path d="M8 5.333c-1.471 0-2.667 1.196-2.667 2.667s1.196 2.667 2.667 2.667c1.471 0 2.667-1.196 2.667-2.667s-1.196-2.667-2.667-2.667zM8 9.333c-0.733 0-1.333-0.6-1.333-1.333s0.6-1.333 1.333-1.333c0.733 0 1.333 0.6 1.333 1.333s-0.6 1.333-1.333 1.333z"></path>
</symbol>
<symbol id="icon-facebook" viewBox="0 0 16 16">
<title>facebook</title>
<path d="M12 4.667c0.367 0 0.667-0.3 0.667-0.667v-2.667c0-0.367-0.3-0.667-0.667-0.667h-2c-2.204 0-4 1.796-4 4v1.333h-1.333c-0.367 0-0.667 0.3-0.667 0.667v2.667c0 0.367 0.3 0.667 0.667 0.667h1.333v4.667c0 0.367 0.3 0.667 0.667 0.667h2.667c0.367 0 0.667-0.3 0.667-0.667v-4.667h1.333c0.304 0 0.571-0.208 0.646-0.504l0.667-2.667c0.050-0.2 0.004-0.408-0.121-0.571s-0.321-0.258-0.525-0.258h-2v-1.333h2zM9.333 7.333h1.813l-0.333 1.333h-1.479c-0.367 0-0.667 0.3-0.667 0.667v4.667h-1.333v-4.667c0-0.367-0.3-0.667-0.667-0.667h-1.333v-1.333h1.333c0.367 0 0.667-0.3 0.667-0.667v-2c0-1.471 1.196-2.667 2.667-2.667h1.333v1.333h-1.333c-0.733 0-1.333 0.6-1.333 1.333v2c0 0.367 0.3 0.667 0.667 0.667z"></path>
</symbol>
<symbol id="icon-instagram" viewBox="0 0 16 16">
<title>instagram</title>
<path d="M11.333 0.667h-6.667c-2.204 0-4 1.796-4 4v6.667c0 2.204 1.796 4 4 4h6.667c2.204 0 4-1.796 4-4v-6.667c0-2.204-1.796-4-4-4zM14 11.333c0 1.471-1.196 2.667-2.667 2.667h-6.667c-1.471 0-2.667-1.196-2.667-2.667v-6.667c0-1.471 1.196-2.667 2.667-2.667h6.667c1.471 0 2.667 1.196 2.667 2.667v6.667z"></path>
<path d="M11.325 7.483c0-0.008 0-0.013-0.004-0.021-0.108-0.704-0.433-1.346-0.938-1.85s-1.146-0.829-1.85-0.938c-0.167-0.025-0.338-0.037-0.508-0.037-1.838 0-3.333 1.496-3.333 3.333s1.496 3.333 3.333 3.333c1.838 0 3.333-1.496 3.333-3.333 0-0.167-0.012-0.333-0.033-0.483v-0.004zM8.029 9.971c-1.104 0-2-0.896-2-2s0.896-2 2-2c0.104 0 0.204 0.008 0.304 0.025 0.85 0.129 1.537 0.813 1.671 1.662v0.004c0 0.008 0 0.013 0.004 0.021 0.012 0.088 0.021 0.188 0.021 0.287 0 1.104-0.896 2-2 2z"></path>
<path d="M11.667 3.667c-0.175 0-0.346 0.071-0.471 0.196s-0.196 0.296-0.196 0.471 0.071 0.346 0.196 0.471c0.125 0.125 0.296 0.196 0.471 0.196s0.346-0.071 0.471-0.196c0.125-0.125 0.196-0.296 0.196-0.471s-0.071-0.346-0.196-0.471c-0.125-0.125-0.296-0.196-0.471-0.196z"></path>
</symbol>
<symbol id="icon-play" viewBox="0 0 16 16">
<title>play</title>
<path d="M13.029 7.438l-9.333-6c-0.204-0.133-0.467-0.142-0.679-0.025s-0.346 0.342-0.346 0.583v12c0 0.246 0.133 0.467 0.346 0.583 0.1 0.054 0.208 0.083 0.321 0.083 0.125 0 0.25-0.037 0.362-0.104l9.333-6c0.192-0.121 0.304-0.333 0.304-0.563s-0.121-0.433-0.308-0.558zM4 12.779v-9.558l7.433 4.779-7.433 4.779z"></path>
</symbol>
<symbol id="icon-twitter" viewBox="0 0 16 16">
<title>twitter</title>
<path d="M15.7 1.442c-0.229-0.15-0.529-0.146-0.754 0.017-0.45 0.321-0.963 0.592-1.492 0.792-0.713-0.596-1.571-0.921-2.467-0.921-2.013 0-3.65 1.638-3.654 3.646-1.5-0.125-3.379-0.767-5.479-3.392-0.15-0.183-0.383-0.279-0.617-0.242-0.238 0.033-0.433 0.192-0.525 0.412-0.029 0.075-0.725 1.837-0.546 3.971 0.15 1.779 0.938 4.108 3.721 5.662-0.904 0.408-1.892 0.621-2.913 0.621-0.1 0-0.2 0-0.296-0.004-0.308-0.012-0.588 0.188-0.671 0.488-0.083 0.296 0.050 0.613 0.317 0.762 1.608 0.892 3.383 1.367 5.129 1.371 0.013 0 0.025 0 0.037 0 1.696 0 3.329-0.438 4.733-1.262 2.821-1.662 4.438-4.708 4.438-8.363 0-0.112-0.004-0.225-0.017-0.338 0.633-0.688 1.092-1.533 1.321-2.462 0-0.008 0.004-0.017 0.004-0.025l0.008-0.038c0.062-0.267-0.050-0.546-0.279-0.696zM13.483 3.946c-0.167 0.158-0.238 0.387-0.196 0.613 0.029 0.146 0.042 0.296 0.046 0.442 0 1.654-0.358 3.142-1.063 4.412-0.642 1.162-1.583 2.129-2.717 2.796-1.2 0.704-2.6 1.079-4.058 1.079-0.013 0-0.021 0-0.033 0-0.717-0.004-1.438-0.096-2.15-0.275 0.85-0.246 1.658-0.625 2.396-1.129 0.204-0.137 0.313-0.379 0.283-0.625s-0.188-0.454-0.417-0.546c-2.496-1-3.867-2.7-4.079-5.058-0.079-0.862 0.017-1.663 0.137-2.275 0.512 0.55 1.154 1.142 1.912 1.637 1.337 0.875 2.833 1.317 4.45 1.317 0.367 0 0.667-0.3 0.667-0.667v-0.688c0-1.279 1.042-2.321 2.321-2.321 0.667 0 1.317 0.288 1.829 0.813 0.175 0.179 0.433 0.246 0.675 0.171 0.129-0.042 0.262-0.083 0.392-0.133-0.121 0.158-0.254 0.3-0.396 0.438z"></path>
</symbol>
</defs>
</svg>
